<?xml version="1.0" encoding="utf-8"?>
<!-- Generator: Adobe Illustrator 17.0.2, SVG Export Plug-In . SVG Version: 6.00 Build 0)  -->
<!DOCTYPE svg PUBLIC "-//W3C//DTD SVG 1.1//EN" "http://www.w3.org/Graphics/SVG/1.1/DTD/svg11.dtd">
<svg version="1.1" id="Layer_1" xmlns="http://www.w3.org/2000/svg" xmlns:xlink="http://www.w3.org/1999/xlink" x="0px" y="0px"
	 width="27.83px" height="22.443px" viewBox="0 0 27.83 22.443" enable-background="new 0 0 27.83 22.443" xml:space="preserve">
<g>
	<circle fill="none" cx="3.591" cy="3.591" r="1.347"/>
	<circle fill="none" cx="7.631" cy="3.591" r="1.347"/>
	<circle fill="none" cx="11.671" cy="3.591" r="1.347"/>
	<path fill="none" d="M24.239,7.182H3.591c-0.744,0-1.347,0.603-1.347,1.347v10.324c0,0.744,0.603,1.347,1.347,1.347h20.648
		c0.744,0,1.347-0.603,1.347-1.347V8.528C25.585,7.785,24.983,7.182,24.239,7.182z M18.852,9.875h4.04v0.898h-4.04V9.875z
		 M22.892,11.67v0.898h-5.835V11.67H22.892z M9.426,9.875h8.08v0.898h-8.08V9.875z M9.426,11.671h6.284v0.898H9.426V11.671z
		 M9.426,14.813h3.591v0.898H9.426V14.813z M7.631,17.506H4.938v-2.693h2.693V17.506z M7.631,12.568H4.938V9.875h2.693V12.568z
		 M16.608,17.506H9.426v-0.898h7.182V17.506z M22.893,17.506h-4.938v-0.898h4.938V17.506z M22.893,15.71h-8.529v-0.898h8.529V15.71z
		"/>
	<rect x="9.426" y="9.875" fill="#97D5EB" width="8.08" height="0.898"/>
	<rect x="4.938" y="14.813" fill="#97D5EB" width="2.693" height="2.693"/>
	<rect x="9.426" y="16.608" fill="#97D5EB" width="7.182" height="0.898"/>
	<rect x="4.938" y="9.875" fill="#97D5EB" width="2.693" height="2.693"/>
	<rect x="17.955" y="16.608" fill="#97D5EB" width="4.938" height="0.898"/>
	<rect x="14.364" y="14.812" fill="#97D5EB" width="8.529" height="0.898"/>
	<rect x="18.852" y="9.875" fill="#97D5EB" width="4.04" height="0.898"/>
	<rect x="17.057" y="11.67" fill="#97D5EB" width="5.835" height="0.898"/>
	<rect x="9.426" y="14.813" fill="#97D5EB" width="3.591" height="0.898"/>
	<rect x="9.426" y="11.671" fill="#97D5EB" width="6.284" height="0.898"/>
	<path fill="#97D5EB" d="M25.585,0H2.244C1.005,0,0,1.005,0,2.244v17.955c0,1.24,1.005,2.244,2.244,2.244h23.341
		c1.24,0,2.244-1.005,2.244-2.244V2.244C27.83,1.005,26.825,0,25.585,0z M11.671,2.244c0.743,0,1.346,0.603,1.347,1.347
		c0,0.744-0.603,1.347-1.347,1.347s-1.347-0.603-1.347-1.347S10.927,2.244,11.671,2.244z M7.631,2.244
		c0.744,0,1.346,0.603,1.347,1.347c0,0.744-0.603,1.347-1.347,1.347S6.284,4.335,6.284,3.591S6.887,2.244,7.631,2.244z M3.591,2.244
		c0.744,0,1.347,0.603,1.347,1.347S4.335,4.938,3.591,4.938c-0.744,0-1.347-0.603-1.347-1.347S2.847,2.244,3.591,2.244z
		 M25.586,18.853c0,0.744-0.603,1.347-1.347,1.347H3.591c-0.744,0-1.347-0.603-1.347-1.347V8.529c0-0.744,0.603-1.347,1.347-1.347
		h20.648c0.744,0,1.346,0.603,1.347,1.346V18.853z"/>
</g>
</svg>
