<?xml version="1.0" encoding="utf-8"?>
<!-- Generator: Adobe Illustrator 17.0.2, SVG Export Plug-In . SVG Version: 6.00 Build 0)  -->
<!DOCTYPE svg PUBLIC "-//W3C//DTD SVG 1.1//EN" "http://www.w3.org/Graphics/SVG/1.1/DTD/svg11.dtd">
<svg version="1.1" id="Layer_1" xmlns="http://www.w3.org/2000/svg" xmlns:xlink="http://www.w3.org/1999/xlink" x="0px" y="0px"
	 width="28.432px" height="22.425px" viewBox="0 0 28.432 22.425" enable-background="new 0 0 28.432 22.425" xml:space="preserve">
<g>
	<g>
		<g>
			<g>
				<g>
					<path fill="#97D5EB" d="M14.816,17.556c0,0.339-0.275,0.615-0.614,0.615l0,0c-0.34,0-0.615-0.276-0.615-0.615V3.511
						c0-0.34,0.275-0.615,0.615-0.615l0,0c0.339,0,0.614,0.275,0.614,0.615V17.556z"/>
					<g>
						<g>
							<circle fill="#97D5EB" cx="14.201" cy="1.872" r="1.873"/>
							<circle fill="#97D5EB" cx="14.201" cy="1.872" r="1.093"/>
						</g>
						<path fill="#97D5EB" d="M12.496,1.756c0,0,0.07-1.626,1.697-1.626c1.414,0,1.732,1.414,1.732,1.662c0,0-0.1-1.376-1.697-1.414
							C12.779,0.342,12.496,1.756,12.496,1.756z"/>
					</g>
				</g>
				<g>
					<g>
						<path fill="#97D5EB" d="M14.201,18.171c0.761,0.025,2.926,0.263,3.98,1.668c1.053,1.405,0.819,1.989,0.76,2.223
							c-0.058,0.234-0.234,0.41-0.877,0.352c-0.644-0.059-7.654,0.019-8.041-0.02c-0.386-0.038-0.854-0.448-0.679-0.975
							s0.468-1.17,1.404-2.107C11.685,18.375,13.324,18.141,14.201,18.171z"/>
						<path fill="#97D5EB" d="M9.609,21.362c0.259-0.73,0.83-1.479,1.296-1.908c0.896-0.825,1.791-0.967,1.791-0.967
							s0.424,0.071,0.613,0.047c0,0-2.734,0.636-3.724,3.252C9.586,21.786,9.425,21.88,9.609,21.362z"/>
						<path fill="#97D5EB" d="M18.766,21.292c-0.278-0.724-0.832-1.468-1.309-1.886c-0.917-0.802-1.956-0.895-1.956-0.895
							s-0.423,0.089-0.613,0.07c0,0,2.663,0.141,3.912,3.134C18.8,21.715,18.963,21.806,18.766,21.292z"/>
					</g>
					<g>
						<path fill="#97D5EB" d="M15.684,17.849c0,0.312-0.253,0.566-0.566,0.566h-1.834c-0.312,0-0.566-0.254-0.566-0.566l0,0
							c0-0.313,0.253-0.566,0.566-0.566h1.834C15.43,17.283,15.684,17.537,15.684,17.849L15.684,17.849z"/>
						<path fill="#97D5EB" d="M12.908,18.109c0,0-0.165-0.165,0.024-0.471c0.188-0.306,0.565-0.236,1.249-0.259
							s1.226-0.047,1.367,0.306c0,0-0.259-0.189-0.896-0.189c-0.753,0-0.976,0.001-1.225,0.048
							C13.05,17.615,12.979,17.827,12.908,18.109z"/>
					</g>
				</g>
			</g>
			<g>
				<g>
					<g>
						<g>
							<path fill="#97D5EB" d="M5.445,4.095C5.251,3.545,5,3.417,4.776,3.413l0,0c-0.291-0.01-0.615,0.283-0.664,0.47l0,0
								c-0.147,0.475-3.359,9.089-3.361,9.092l0,0v0.001l-0.265-0.098c0.002-0.005,0.804-2.156,1.627-4.37l0,0
								C2.933,6.295,3.776,4.016,3.842,3.8l0,0c0.109-0.326,0.483-0.659,0.935-0.67l0,0C5.142,3.127,5.51,3.393,5.713,4.004l0,0
								c0.453,1.326,2.465,8.953,2.466,8.956l0,0l-0.274,0.072C7.902,13.023,5.889,5.391,5.445,4.095L5.445,4.095z"/>
						</g>
						<g>
							<path fill="#97D5EB" d="M8.369,14.026c-0.234,0.468-0.373,0.722-0.761,0.722H1.171c-0.388,0-0.488-0.312-0.702-0.702L0,13.07
								c0-0.388,0.315-0.702,0.703-0.702h7.374c0.388,0,0.702,0.314,0.702,0.702L8.369,14.026z"/>
						</g>
						<g>
							<path fill="#97D5EB" d="M0.442,13.562c0,0-0.601-0.991,0.459-0.991c1.026,0,6.646-0.07,6.999-0.035
								c0.354,0.035,0.636,0.141,0.636,0.425c0,0.282-0.176,0.494-0.176,0.494s0.141-0.53-0.495-0.636
								c-0.706-0.117-6.54,0.036-6.964,0.036C0.478,12.855,0.442,13.138,0.442,13.562z"/>
						</g>
					</g>
					<g>
						<g>
							<path fill="#97D5EB" d="M25.099,5.686c-0.195-0.55-0.445-0.678-0.669-0.683l0,0c-0.291-0.01-0.615,0.283-0.664,0.47l0,0
								c-0.147,0.475-3.359,9.089-3.361,9.091l0,0v0.001l-0.265-0.098c0.002-0.004,0.804-2.156,1.627-4.37l0,0
								c0.82-2.21,1.663-4.491,1.729-4.707l0,0c0.109-0.326,0.483-0.659,0.935-0.669l0,0c0.366-0.003,0.734,0.263,0.937,0.874l0,0
								c0.454,1.326,2.465,8.953,2.466,8.956l0,0l-0.274,0.072C27.556,14.614,25.542,6.982,25.099,5.686L25.099,5.686z"/>
						</g>
						<g>
							<path fill="#97D5EB" d="M28.022,15.616c-0.234,0.468-0.373,0.722-0.761,0.722h-6.437c-0.388,0-0.488-0.312-0.702-0.702
								l-0.468-0.975c0-0.388,0.314-0.702,0.702-0.702h7.374c0.388,0,0.702,0.314,0.702,0.702L28.022,15.616z"/>
						</g>
						<g>
							<path fill="#97D5EB" d="M20.096,15.153c0,0-0.601-0.99,0.46-0.99c1.026,0,6.646-0.071,6.999-0.036
								c0.353,0.036,0.636,0.141,0.636,0.424s-0.177,0.495-0.177,0.495s0.141-0.53-0.495-0.636
								c-0.706-0.117-6.539,0.035-6.963,0.035C20.131,14.445,20.096,14.728,20.096,15.153z"/>
						</g>
					</g>
				</g>
				<g>
					<g>
						<path fill="#97D5EB" d="M24.181,5.153c-0.028,0.371-0.352,0.649-0.722,0.621L5.369,4.405c-0.371-0.028-0.648-0.351-0.62-0.722
							l0,0C4.777,3.312,5.1,3.035,5.47,3.063l18.09,1.369C23.931,4.46,24.208,4.783,24.181,5.153L24.181,5.153z"/>
					</g>
					<g>
						<g>
							<g>
								<circle fill="#97D5EB" cx="4.76" cy="3.628" r="1.092"/>
							</g>
							<g>
								<path fill="#97D5EB" d="M3.765,3.608c0,0,0.04-0.934,0.975-0.934c0.812,0,0.995,0.812,0.995,0.954
									c0,0-0.063-0.72-0.98-0.742C3.922,2.866,3.765,3.608,3.765,3.608z"/>
							</g>
						</g>
						<g>
							<g>
								<circle fill="#97D5EB" cx="24.385" cy="5.267" r="1.093"/>
							</g>
							<g>
								<path fill="#97D5EB" d="M23.419,5.234c0,0,0.04-0.934,0.974-0.934c0.813,0,0.995,0.812,0.995,0.954
									c0,0-0.063-0.72-0.98-0.742C23.576,4.492,23.419,5.234,23.419,5.234z"/>
							</g>
						</g>
					</g>
				</g>
			</g>
		</g>
	</g>
</g>
</svg>
