<?xml version="1.0" encoding="utf-8"?>
<!-- Generator: Adobe Illustrator 17.0.2, SVG Export Plug-In . SVG Version: 6.00 Build 0)  -->
<!DOCTYPE svg PUBLIC "-//W3C//DTD SVG 1.1//EN" "http://www.w3.org/Graphics/SVG/1.1/DTD/svg11.dtd">
<svg version="1.1" id="Layer_1" xmlns="http://www.w3.org/2000/svg" xmlns:xlink="http://www.w3.org/1999/xlink" x="0px" y="0px"
	 width="21.548px" height="23.369px" viewBox="0 0 21.548 23.369" enable-background="new 0 0 21.548 23.369" xml:space="preserve">
<g>
	<g>
		<rect x="4.196" y="9.392" fill="#97D5EB" width="1.354" height="1.352"/>
		<rect x="6.227" y="9.393" fill="#97D5EB" width="1.354" height="1.352"/>
		<rect x="8.255" y="9.392" fill="#97D5EB" width="1.354" height="1.352"/>
		<rect x="10.286" y="9.393" fill="#97D5EB" width="1.354" height="1.352"/>
		<rect x="12.312" y="9.393" fill="#97D5EB" width="1.354" height="1.352"/>
		<rect x="14.34" y="9.392" fill="#97D5EB" width="1.354" height="1.352"/>
		<rect x="16.371" y="9.393" fill="#97D5EB" width="1.354" height="1.352"/>
		<rect x="4.196" y="11.421" fill="#97D5EB" width="1.354" height="1.352"/>
		<rect x="6.227" y="11.421" fill="#97D5EB" width="1.354" height="1.352"/>
		<rect x="8.255" y="11.421" fill="#97D5EB" width="1.354" height="1.352"/>
		<rect x="10.286" y="11.421" fill="#97D5EB" width="1.354" height="1.352"/>
		<rect x="14.34" y="11.421" fill="#97D5EB" width="1.354" height="1.352"/>
		<rect x="16.371" y="11.421" fill="#97D5EB" width="1.354" height="1.352"/>
		<rect x="4.197" y="17.506" fill="#97D5EB" width="1.354" height="1.352"/>
		<rect x="6.228" y="17.506" fill="#97D5EB" width="1.354" height="1.352"/>
		<rect x="8.256" y="17.506" fill="#97D5EB" width="1.354" height="1.352"/>
		<rect x="4.196" y="15.477" fill="#97D5EB" width="1.354" height="1.352"/>
		<rect x="6.228" y="15.478" fill="#97D5EB" width="1.354" height="1.352"/>
		<rect x="8.255" y="15.477" fill="#97D5EB" width="1.354" height="1.352"/>
		<rect x="10.286" y="15.478" fill="#97D5EB" width="1.354" height="1.352"/>
		<rect x="12.312" y="15.478" fill="#97D5EB" width="1.354" height="1.352"/>
		<rect x="14.34" y="15.477" fill="#97D5EB" width="1.354" height="1.352"/>
		<rect x="16.371" y="15.478" fill="#97D5EB" width="1.354" height="1.352"/>
		<rect x="6.228" y="13.449" fill="#97D5EB" width="1.354" height="1.352"/>
		<rect x="8.255" y="13.449" fill="#97D5EB" width="1.354" height="1.352"/>
		<rect x="10.286" y="13.449" fill="#97D5EB" width="1.354" height="1.352"/>
		<rect x="12.312" y="13.449" fill="#97D5EB" width="1.354" height="1.352"/>
		<rect x="12.311" y="11.421" fill="#97D5EB" width="1.354" height="1.352"/>
		<rect x="14.34" y="13.449" fill="#97D5EB" width="1.354" height="1.352"/>
		<rect x="4.196" y="13.449" fill="#97D5EB" width="1.354" height="1.352"/>
		<rect x="16.371" y="13.449" fill="#97D5EB" width="1.354" height="1.352"/>
	</g>
	<g>
		<path fill="#97D5EB" d="M19.154,2.394h-1.077v2.394h-3.831V2.394H7.303v2.394H3.472V2.394H2.394C1.077,2.394,0,3.472,0,4.789
			v16.186c0,1.317,1.077,2.394,2.394,2.394h16.76c1.317,0,2.394-1.077,2.394-2.394V4.789C21.548,3.472,20.471,2.394,19.154,2.394z
			 M19.154,20.974H2.394V7.349h16.76V20.974z M6.225,0H4.549v4.07h1.676V0z M16.999,0h-1.676v4.07h1.676V0z"/>
	</g>
</g>
</svg>
