<?xml version="1.0" encoding="utf-8"?>
<!-- Generator: Adobe Illustrator 17.0.2, SVG Export Plug-In . SVG Version: 6.00 Build 0)  -->
<!DOCTYPE svg PUBLIC "-//W3C//DTD SVG 1.1//EN" "http://www.w3.org/Graphics/SVG/1.1/DTD/svg11.dtd">
<svg version="1.1" id="Layer_1" xmlns="http://www.w3.org/2000/svg" xmlns:xlink="http://www.w3.org/1999/xlink" x="0px" y="0px"
	 width="15.896px" height="24.87px" viewBox="0 0 15.896 24.87" enable-background="new 0 0 15.896 24.87" xml:space="preserve">
<g>
	<path fill="#97D5EB" d="M11.019,14.963"/>
	<path fill="#97D5EB" d="M6.687,6.714c-0.21,0.422-1.789,1.748-2.941,2.134l0,0c-0.26,0.102-0.543,0.159-0.84,0.159
		c-1.267,0-2.293-1.027-2.293-2.293c0-1.267,1.027-2.293,2.293-2.293c0.296,0,0.579,0.057,0.84,0.159l0,0
		C4.899,4.967,6.477,6.292,6.687,6.714z M4.014,9.369L4.014,9.369C3.796,9.544,3.605,9.76,3.457,10.017
		C2.824,11.114,3.2,12.516,4.296,13.15c1.097,0.633,2.499,0.257,3.133-0.839c0.148-0.257,0.241-0.53,0.282-0.807l0,0
		c0.241-1.191-0.118-3.221-0.378-3.614C6.862,7.861,4.925,8.565,4.014,9.369z M8.296,11.533L8.296,11.533
		c0.042,0.276,0.134,0.55,0.282,0.807c0.633,1.097,2.036,1.473,3.133,0.839c1.097-0.633,1.473-2.036,0.839-3.133
		c-0.148-0.257-0.339-0.473-0.558-0.647l0,0c-0.911-0.805-2.848-1.509-3.318-1.48C8.414,8.312,8.055,10.342,8.296,11.533z
		 M12.31,8.906L12.31,8.906c0.26,0.102,0.543,0.159,0.84,0.159c1.267,0,2.293-1.027,2.293-2.293c0-1.267-1.027-2.293-2.293-2.293
		c-0.296,0-0.579,0.057-0.839,0.159l0,0C11.158,5.025,9.58,6.35,9.369,6.772C9.58,7.194,11.158,8.52,12.31,8.906z M8.028,5.962
		c-0.431,0-0.781,0.35-0.781,0.781c0,0.431,0.35,0.781,0.781,0.781c0.431,0,0.781-0.35,0.781-0.781S8.46,5.962,8.028,5.962z
		 M12.043,4.117L12.043,4.117c0.218-0.174,0.409-0.391,0.557-0.648c0.633-1.097,0.257-2.499-0.839-3.133
		c-1.097-0.633-2.499-0.258-3.133,0.839C8.48,1.433,8.387,1.706,8.346,1.983l0,0c-0.241,1.191,0.118,3.22,0.378,3.613
		C9.194,5.625,11.132,4.921,12.043,4.117z M7.761,1.954L7.761,1.954c-0.042-0.276-0.134-0.55-0.282-0.807
		C6.846,0.05,5.443-0.326,4.346,0.308C3.249,0.941,2.873,2.343,3.507,3.44c0.148,0.257,0.339,0.473,0.558,0.647l0,0
		c0.911,0.804,2.848,1.508,3.319,1.479C7.643,5.174,8.002,3.145,7.761,1.954z M0.003,13.664c0,0-0.256,5.521,4.003,5.896
		C4.006,19.56,3.592,15.518,0.003,13.664z M5.209,21.059c0,0-3.431-0.592-4.634,3.392C0.575,24.45,4.4,24.667,5.209,21.059z
		 M8.068,13.185c-0.112,0-0.203,0.091-0.203,0.203v9.219l-2.422-2.473C5.285,19.976,5.48,19.77,5.48,19.77l0,0
		c0.642-0.662,1.838-2.35,1.279-5.367c0,0-2.648,1.578-1.808,5.15c0.161,0.685,0.328,0.773,0.328,0.773l2.588,2.642v1.698
		c0,0.112,0.091,0.203,0.203,0.203c0.112,0,0.203-0.091,0.203-0.203V13.388C8.271,13.276,8.18,13.185,8.068,13.185z M11.019,14.963
		c0,0-2.534,2.509-1.082,6.062c0,0,5.094-0.611,5.221-6.087c0,0-2.241,1.133-3.642,2.738C11.515,17.675,11.681,16.45,11.019,14.963z
		 M10.828,21.483c0,0,1.783,3.082,5.069,2.458C15.896,23.941,13.948,20.999,10.828,21.483z"/>
</g>
</svg>
