<?xml version="1.0" encoding="utf-8"?>
<!-- Generator: Adobe Illustrator 17.0.2, SVG Export Plug-In . SVG Version: 6.00 Build 0)  -->
<!DOCTYPE svg PUBLIC "-//W3C//DTD SVG 1.1//EN" "http://www.w3.org/Graphics/SVG/1.1/DTD/svg11.dtd">
<svg version="1.1" id="Layer_1" xmlns="http://www.w3.org/2000/svg" xmlns:xlink="http://www.w3.org/1999/xlink" x="0px" y="0px"
	 width="19.015px" height="22.468px" viewBox="0 0 19.015 22.468" enable-background="new 0 0 19.015 22.468" xml:space="preserve">
<rect x="-0.474" y="0" fill="none" width="19.922" height="22.734"/>
<path fill="#97D5EB" d="M19.015,4.548V1.237c0-0.676-0.554-1.227-1.227-1.227h-2.49c0.032,0.046,0.064,0.092,0.097,0.133
	L19.015,4.548z"/>
<rect x="2.847" y="12.922" fill="none" width="13.416" height="0.636"/>
<rect x="2.847" y="16.356" fill="none" width="13.416" height="0.636"/>
<rect x="2.847" y="14.64" fill="none" width="13.416" height="0.634"/>
<rect x="2.847" y="18.073" fill="none" width="13.416" height="0.636"/>
<rect x="2.847" y="9.487" fill="none" width="13.416" height="0.636"/>
<rect x="2.845" y="7.772" fill="none" width="13.416" height="0.633"/>
<rect x="2.847" y="11.205" fill="none" width="13.416" height="0.637"/>
<rect x="2.808" y="3.191" fill="#FFFFFF" width="8.566" height="2.331"/>
<g>
	<rect x="2.847" y="16.356" fill="none" width="13.416" height="0.636"/>
	<rect x="2.847" y="14.64" fill="none" width="13.416" height="0.634"/>
	<rect x="2.847" y="18.073" fill="none" width="13.416" height="0.636"/>
	<rect x="2.847" y="12.922" fill="none" width="13.416" height="0.636"/>
	<rect x="2.808" y="3.191" fill="none" width="8.566" height="2.331"/>
	<rect x="2.845" y="7.772" fill="none" width="13.416" height="0.633"/>
	<rect x="2.847" y="11.205" fill="none" width="13.416" height="0.637"/>
	<rect x="2.847" y="9.487" fill="none" width="13.416" height="0.636"/>
	<path fill="#97D5EB" d="M14.699,4.313V0.01H1.227C0.552,0.01,0,0.56,0,1.237v20.007c0,0.673,0.552,1.224,1.227,1.224v0.001h16.561
		c0.673,0,1.227-0.552,1.227-1.225V5.41h-3.219C15.193,5.41,14.699,4.916,14.699,4.313z M2.808,3.191h8.566v2.331H2.808V3.191z
		 M2.847,18.709v-0.636H16.26l0.003,0.636H2.847z M2.847,16.992v-0.636H16.26l0.003,0.636H2.847z M2.847,15.274V14.64H16.26
		l0.003,0.634H2.847z M2.847,13.558v-0.636H16.26l0.003,0.636H2.847z M2.847,11.842v-0.637H16.26l0.003,0.637H2.847z M2.847,10.123
		V9.487H16.26l0.003,0.636H2.847z M16.263,8.405H2.847V7.772H16.26L16.263,8.405z"/>
	<path fill="#FFFFFF" d="M19.029,4.565l-0.014-0.017l-3.62-4.405c-0.033-0.041-0.065-0.087-0.097-0.133
		c-0.336-0.48-0.599-1.17-0.599-0.619V0.01v4.303c0,0.603,0.494,1.097,1.097,1.097h3.219h0.614
		C20.232,5.41,19.411,5.031,19.029,4.565z"/>
</g>
<g>
	<rect x="2.847" y="7.772" fill="#FFFFFF" width="13.413" height="0.633"/>
	<rect x="2.847" y="9.487" fill="#FFFFFF" width="13.416" height="0.636"/>
	<rect x="2.847" y="11.205" fill="#FFFFFF" width="13.416" height="0.637"/>
	<rect x="2.847" y="12.922" fill="#FFFFFF" width="13.416" height="0.636"/>
	<rect x="2.847" y="14.64" fill="#FFFFFF" width="13.416" height="0.634"/>
	<rect x="2.847" y="16.356" fill="#FFFFFF" width="13.416" height="0.636"/>
	<rect x="2.847" y="18.073" fill="#FFFFFF" width="13.416" height="0.636"/>
</g>
</svg>
