<?xml version="1.0" encoding="utf-8"?>
<!-- Generator: Adobe Illustrator 17.0.2, SVG Export Plug-In . SVG Version: 6.00 Build 0)  -->
<!DOCTYPE svg PUBLIC "-//W3C//DTD SVG 1.1//EN" "http://www.w3.org/Graphics/SVG/1.1/DTD/svg11.dtd">
<svg version="1.1" id="Layer_1" xmlns="http://www.w3.org/2000/svg" xmlns:xlink="http://www.w3.org/1999/xlink" x="0px" y="0px"
	 width="23.569px" height="22.453px" viewBox="0 0 23.569 22.453" enable-background="new 0 0 23.569 22.453" xml:space="preserve">
<g>
	<g>
		<path fill="#97D5EB" d="M4.508,22.453l0.718-2.171c0.645-1.972,1.423-5.169,1.123-6.098C6.044,13.25,3.54,11.125,1.854,9.913
			L0,8.575l2.286,0.01c2.507,0,5.409-0.282,6.142-0.818c0.796-0.576,2.047-3.619,2.678-5.595L11.804,0L12.5,2.173
			c0.636,1.978,1.887,5.019,2.679,5.595c0.737,0.536,3.635,0.818,6.12,0.818h2.27l-1.815,1.328
			c-1.684,1.212-4.188,3.337-4.492,4.271c-0.302,0.932,0.474,4.126,1.123,6.098l0.714,2.171l-1.843-1.351
			c-1.671-1.228-4.47-2.952-5.452-2.952c-0.98,0-3.78,1.724-5.453,2.952L4.508,22.453L4.508,22.453z M4.364,9.993
			c1.342,1.097,3.016,2.63,3.378,3.739c0.356,1.106-0.093,3.332-0.535,5.007c1.454-0.938,3.435-2.055,4.596-2.055
			c1.164,0,3.14,1.116,4.598,2.055c-0.441-1.676-0.895-3.902-0.532-5.007c0.361-1.109,2.034-2.642,3.376-3.739
			c-1.767-0.099-3.995-0.359-4.932-1.039c-0.938-0.685-1.885-2.751-2.51-4.371c-0.627,1.62-1.57,3.685-2.513,4.371
			C8.356,9.634,6.125,9.894,4.364,9.993L4.364,9.993z"/>
	</g>
</g>
</svg>
